<svg xmlns="http://www.w3.org/2000/svg" viewBox="0 0 1024 941.07"><g fill="currentColor"><path d="M90.09,51.39c0-24.88-20.17-45.04-45.04-45.04S0,26.51,0,51.39c0,20.2,13.29,37.29,31.61,43v198.48c-16.97,2.25-30.08,16.76-30.08,34.36v178.12c0,19.15,15.53,34.66,34.68,34.66h36.18c-.44-3.78-.66-7.64-.66-11.54v-121.18c0-39.67,5.27-78.14,15.11-114.74h-28.37V94.39c18.32-5.72,31.61-22.81,31.61-43h.02-.01ZM507.11.01C283.78.63,103.97,183.97,103.97,407.29v121.16c0,37.56,30.43,67.99,67.99,67.99h672.58c37.54,0,67.97-30.43,67.97-67.99v-124.18c0-111.62-45.24-212.7-118.4-285.85C720.71,45,619.22-.3,507.12,0h-.01ZM799.71,445.83c0,29.86-24.2,54.08-54.08,54.08h-474.79c-29.86,0-54.08-24.2-54.08-54.08v-39.03c0-160.23,131.08-293.91,291.31-294,160.79-.08,291.63,130.72,291.63,291.46v41.56h0Z"></path><circle cx="361.4" cy="368.01" r="75.23"></circle><circle cx="651.46" cy="368.02" r="75.23" transform="rotate(-45 651.458 368.017)"></circle><path d="M991.2,292.6V94.39c18.32-5.72,31.61-22.81,31.61-43,0-24.88-20.17-45.04-45.04-45.04s-45.04,20.17-45.04,45.04c0,20.2,13.29,37.29,31.61,43v198.16h-33.97c9.47,36.01,14.36,73.49,14.36,111.72v124.18c0,3.92-.22,7.77-.66,11.55h45.27c19.15,0,34.66-15.51,34.66-34.66v-178.12c0-18.53-14.52-33.66-32.8-34.63h0ZM700.38,640.03h-371.8l-103.5,200.61c-23.65,45.82,9.62,100.43,61.19,100.43h456.42c51.57,0,84.84-54.6,61.19-100.43l-103.5-200.61Z"></path></g></svg>