<svg xmlns="http://www.w3.org/2000/svg" viewBox="0 0 2009.76 2215.43"><g fill="currentColor"><path d="M1288.5,1202.35c36.18.2,63.78,27.92,64.08,64.34.31,37.3-29.33,66.29-65.75,65.29-42.6-1.18-64.77-35.53-64.62-64.61.17-33.93,28.99-66.41,66.29-65.02Z"></path><path d="M788.42,1266.74c-.41,40.42-31.11,65.39-65.76,65.43-30.3.04-64.28-25.39-64.35-65.17-.06-29.44,23.18-65.22,66.54-65.03,36.06.16,63.77,28.48,63.57,64.76Z"></path><path d="M997.88,953.14c74.36.82,142.78,2.56,210.97,8.59,51.31,4.54,102.28,11.88,152.14,25.4,26.32,7.14,51.85,16.43,76.02,29.25,39.02,20.68,67.75,51.19,87.47,90.52,16.34,32.6,25.46,67.35,30.38,103.23,7.71,56.23,11.31,112.78,8.41,169.5-2.32,45.52-5.12,91.11-16.14,135.62-2.82,11.4-6,22.76-9.71,33.9-22.15,66.38-66.67,111.36-131.55,136.65-33.03,12.88-67.35,21.01-102.19,27.03-42.06,7.26-84.43,11.45-127.06,14.35-99.26,6.74-198.56,6-297.83,2.66-70.59-2.37-140.93-9.1-209.87-25.75-30.77-7.43-60.95-16.53-89.21-31.42-43.97-23.18-76.17-56.88-95.92-102.68-11.74-27.22-19.88-55.4-24.28-84.57-11.81-78.2-13.46-156.69-6.32-235.47,2.8-30.86,6.94-61.43,15.14-91.27,12.11-44.06,32.32-83.65,67.27-114.36,24.64-21.65,52.9-37.1,83.82-47.75,37.68-12.97,76.62-20.59,115.88-26.8,88.98-14.08,178.77-14.65,262.57-16.63ZM601.23,1266.46c.12,66.81,55.78,122.63,121.99,122.35,70.85-.29,123.59-56.48,123.26-123.2-.3-60.77-49.23-121.49-123.08-121.45-71.9.04-123.9,62.62-122.17,122.3ZM1409.72,1266.21c.79-61.54-50.53-123.12-124.54-122.08-62.19.87-120.58,52.68-120.44,121.95.13,68.26,55.69,123.55,123.8,122.73,68.25-.82,121.73-54.93,121.18-122.6ZM1012.44,1618.89c50.32.88,96.56-22.44,137.37-58.85,3.24-2.89,6.11-6.43,8.35-10.16,6.56-10.91,4.58-25.76-4.21-34.61-9.57-9.64-22.31-11.55-34.13-4.12-6.15,3.87-11.7,8.89-16.95,13.98-49.55,48.13-137.1,49.17-187.58,3.84-4.92-4.42-9.88-8.86-15.24-12.69-4.12-2.95-8.69-5.6-13.46-7.27-13.53-4.73-26.91,1.08-33.27,13.86-6.59,13.24-4.95,23.05,8.43,35.27,40.97,37.41,88.04,60.76,150.69,60.74Z"></path><path d="M.28,1331.97c0-30.16-.61-60.34.15-90.48,1.09-43.18,17.02-80.13,49.22-109.48,12.04-10.97,25.51-20.28,40.54-26.3,13.26-5.31,18.11-14.11,21.06-27.68,14.43-66.41,36.93-130.1,69.34-189.98,55.04-101.66,127.99-188.2,219.86-258.65,72.49-55.59,152.31-97.13,239.09-125.45,6.98-2.28,14-4.7,21.19-6.02,18.01-3.29,33.9,5.91,38.42,21.6,4.83,16.78-2.55,32-19.66,39.35-6.73,2.89-13.94,4.64-20.9,6.98-200.93,67.48-346.22,197.84-437.89,388.37-17.23,35.8-30.6,73.24-40.45,111.83-1.45,5.69-2.73,11.44-3.76,17.22-.83,4.67,2.2,6.92,6.24,7.11,8.07.38,16.17.18,24.25.28,19.75.23,20.94,1.4,17.49,19.92-9.44,50.75-13.55,102.08-15.13,153.52-1.4,45.56-1.21,91.21-.41,136.8.93,52.99,6.21,105.68,14.68,158.03.58,3.61,1.31,7.23,1.51,10.88.17,3.23-1.74,5.66-4.87,6.29-3.57.73-7.27,1.14-10.91,1.13-21.33-.09-42.67-.67-63.99-.48-52.99.47-125.59-44.24-141.17-119.32-2.7-13-4.27-26.08-4.17-39.41.21-28.69.06-57.38.06-86.07.07,0,.14,0,.21,0Z"></path><path d="M2009.7,1334.54c0,28.69-.13,57.39.05,86.08.09,14.83-1.72,29.42-5.53,43.66-9.91,37.08-30.86,66.38-63.25,87.19-6.79,4.36-13.77,8.78-21.26,11.58-12.24,4.58-18.18,12.2-20.73,25.45-7.93,41.22-19.81,81.42-35.83,120.29-49.12,119.21-125.9,216.97-229.33,293.69-94.48,70.08-200.34,113.73-316.18,133.19-20.99,3.52-42.31,5.24-63.54,7.05-10.66.91-16.85,5.35-21.45,15.32-15.46,33.46-42.34,51.77-78.88,55.81-8.02.89-16.13,1.31-24.21,1.34-44.88.2-89.76.34-134.64.18-9.51-.03-19.18-.58-28.5-2.33-38.01-7.12-63.78-29.53-76.08-65.81-12.58-37.13-5.32-71.29,21.09-100.52,17.97-19.9,40.15-31.91,67.73-32.09,21.33-.14,42.66-.65,63.99-.63,34.58.04,69.15.22,103.73.65,38.03.47,65.53,18.72,84.53,50.94.37.63.79,1.27,1.02,1.96,3.45,10.46,11.33,12.15,20.99,11,18.98-2.26,38.13-3.39,56.96-6.53,118.81-19.85,224.82-68.55,316.69-146.07,100-84.37,167.65-190.25,202.02-316.89,2.12-7.8,3.85-15.71,5.4-23.64,1.03-5.26-1.49-8.09-7.37-8.25-10.29-.29-20.6,0-30.89-.4-6.56-.25-9.04-3.2-8.23-10.09,1.81-15.33,4.27-30.58,6.12-45.91,10.02-82.7,13.67-165.67,9.29-248.88-1.43-27.16-2.21-54.35-5.31-81.46-2.84-24.84-5.42-49.69-9.62-74.35-.86-5.07-1.52-10.2-1.95-15.32-.54-6.5,1.84-9.31,8.9-9.66,10.28-.51,20.6-.25,30.88-.76,7.09-.35,9.05-2.99,7.59-10.04-5.97-28.89-15.02-56.87-25.85-84.25-39.79-100.68-98.04-189.31-176.61-263.8-81.19-76.96-173.98-135.17-282.05-167.25-7.02-2.09-14.14-4.29-20.67-7.55-14.28-7.14-20.76-22.25-16.69-37.02,4.1-14.89,17.22-24.32,33.25-23.2,5.79.4,11.56,2.02,17.21,3.55,27.03,7.32,53.23,17.11,78.71,28.59,218.44,98.43,366.72,260.6,442.35,488.37,6.24,18.8,11.73,38.06,15.11,57.53,2.79,16.08,9.77,25.4,24.85,32.51,40.75,19.22,66.82,51.93,79.86,95,4.07,13.45,6.2,27.19,6.15,41.29-.12,30.17-.04,60.33-.04,90.49.06,0,.12,0,.18,0Z"></path><path d="M997.54,1933.73c-55.13,1.72-121.3-1.39-187.38-5.2-66.09-3.81-131.87-11.32-196.55-26.23-38.09-8.78-74.7-21.93-110.34-37.99-85.64-38.59-146.57-101.63-185.58-186.56-20.75-45.17-32.35-92.86-39.78-141.78-13.32-87.63-15.56-175.8-11.94-264.13,2.47-60.27,7.44-120.42,20.52-179.52,28.52-128.8,98.01-229.98,206.56-304.49,69.66-47.82,146.99-76.67,229.78-91.66,18.08-3.28,36.25-6.05,54.37-9.16,12.18-2.09,12.96-2.91,13.23-15.83.26-12.5.08-25.01.09-37.52.02-44.14-.14-88.28.19-132.42.07-9.49-2.71-16.84-9.5-23.49-26.79-26.27-53.41-52.71-79.78-79.39-6.15-6.21-12.01-6.84-19.79-3.65-20.82,8.53-42.5,11.88-64.82,7.71-47.57-8.87-80.37-36.26-94.59-82.29-14.01-45.37-2.41-85.74,31.94-118.97,52.65-50.92,132.91-39.47,172.53,9.81,26.89,33.44,34.72,71.58,20.74,111.91-6.15,17.76-2.52,27.8,10.39,39.8,28,26.03,54.32,53.86,81.62,80.65,10.66,10.45,15.34,22.4,15.2,37.44-.52,56.65-.31,113.3-.38,169.95-.03,28.4-2.2,28.07,27.67,25.72,21.99-1.73,44.07-2.22,66.1-3.32,5.86-.29,11.75-.56,17.56-1.32,3.98-.52,6.61-3.36,7.09-7.32.62-5.09.89-10.25.89-15.38,0-130.96-.05-261.91-.09-392.86,0-1.47-.15-2.96,0-4.41,1.33-12.56-3.71-19.82-15.75-25.28-36.49-16.56-59.69-45.39-67.95-84.4-16.07-75.97,42.84-132.56,95.48-140.6,69.23-10.58,121.41,35.28,134.44,84.7,14.23,53.91-10.63,112.96-61.4,137.85-22.24,10.9-20.05,7.76-20.08,32.87-.19,130.22-.13,260.44-.08,390.66,0,25.71-1.85,24.79,25.37,25.66,22.78.73,45.53,2.39,68.3,3.6,5.14.27,10.29.59,15.42.47,4.15-.1,6.94-2.64,7.36-6.73.59-5.83.8-11.72.81-17.59.11-46.35.11-92.7.18-139.05.02-11.77.52-23.55.18-35.31-.38-12.64,4.17-22.9,13.07-31.57,7.38-7.18,14.67-14.46,21.96-21.74,23.95-23.91,47.79-47.92,71.88-71.69,5.76-5.68,8.88-10.85,4.54-19.18-3.35-6.42-5.22-13.74-6.96-20.86-18.92-76.95,45.97-151.42,124.95-145.17,70.62,5.59,132.53,78.25,99.43,163.33-17.12,44.02-66.58,74.79-114.03,71.87-14.01-.86-27.91-2.83-40.76-8.77-8.52-3.94-14.96-2.85-21.65,4-26.73,27.37-53.73,54.47-80.89,81.4-5.71,5.66-7.74,11.88-7.72,19.66.1,57.38-.1,114.77.02,172.15.02,12.12,1.2,13.11,13.95,14.95,42.96,6.22,85.62,13.66,127.4,25.84,64.28,18.73,123.37,48.15,176.99,87.79,89.37,66.06,149.12,153.32,180.24,259.96,11.98,41.03,19.05,83.05,23.03,125.64,5.48,58.65,8.54,117.41,7.17,176.29-1.66,71.37-6.05,142.54-20.62,212.7-11.46,55.19-30.35,107.37-60.9,155.13-32.02,50.06-74.23,89.11-125.78,118.14-51.08,28.77-106.09,46.98-163.34,58.61-45.44,9.23-91.31,15.14-137.6,18.54-77.08,5.67-154.23,8.36-242.62,8.03ZM1013.85,896.32c-56.93-.09-103.96,1.07-151.02,3.52-64.02,3.32-127.53,10.12-190.35,22.89-41.22,8.38-81.3,20.44-118.77,40.04-57.61,30.13-99.14,75.22-124.76,134.95-9.3,21.69-16.23,44.16-21.38,67.17-11.45,51.21-14.86,103.37-16.46,155.55-1.81,58.93,2.62,117.65,12.38,175.84,5.73,34.19,14.81,67.5,29.2,99.19,24.52,54.01,62.1,96.03,114.57,124.2,24.68,13.25,50.46,23.86,77.32,32.02,54.49,16.55,110.43,25.04,166.94,29.72,77.02,6.37,154.21,9.64,231.51,8.75,39.72-.46,79.43-1.97,119.13-3.39,59.6-2.14,118.89-7.57,177.66-17.99,51.72-9.16,101.45-24.01,147.9-49.3,48.23-26.26,83.65-64.4,107.53-113.37,12.27-25.16,21.38-51.57,27.74-78.93,9.69-41.71,14.88-84.07,16.59-126.71,2.25-55.88,2.42-111.84-4.06-167.54-4.17-35.83-10.52-71.23-21.76-105.68-30.21-92.59-91.63-154.09-183.65-185.28-11.13-3.77-22.39-7.23-33.73-10.35-66.29-18.22-134.33-25.5-202.55-30.22-56.48-3.91-113.11-6.83-159.99-5.08Z"></path></g></svg>